<svg width="24" height="24" viewBox="0 0 24 24" fill="none" xmlns="http://www.w3.org/2000/svg">
<path d="M10 11H14M10 11L8.52568 11.9829C7.66249 12.5583 6.50261 12.3783 5.85454 11.5682L5 10.5M10 11L9.63636 15M14 11L15.4743 11.9829C16.3375 12.5583 17.4974 12.3783 18.1455 11.5682L19 10.5M14 11L14.3636 15M9.5 16.5L7.87559 17.4282C6.9673 17.9473 6.85586 19.2132 7.65952 19.8829L9 21M9.5 16.5V16.5C10.801 18.0613 13.199 18.0613 14.5 16.5V16.5M9.5 16.5L9.63636 15M14.5 16.5L16.1244 17.4282C17.0327 17.9473 17.1441 19.2132 16.3405 19.8829L15 21M14.5 16.5L14.3636 15M9.63636 15H14.3636M12 3.5V3.5C13.3807 3.5 14.5 4.61929 14.5 6V6C14.5 7.38071 13.3807 8.5 12 8.5V8.5C10.6193 8.5 9.5 7.38071 9.5 6V6C9.5 4.61929 10.6193 3.5 12 3.5Z" stroke="#687176" stroke-width="2" stroke-linecap="round" stroke-linejoin="round"></path>
</svg>